<svg xmlns="http://www.w3.org/2000/svg" width="512" height="512" viewBox="0 0 512 512"><rect width="512" height="512" fill="#F6F1E4"/><path d="M256,256 L836,101 L856,256 Z" fill="#F1E9D2"/><path d="M256,256 L836,411 L776,556 Z" fill="#F1E9D2"/><path d="M256,256 L680,680 L556,776 Z" fill="#F1E9D2"/><path d="M256,256 L411,836 L256,856 Z" fill="#F1E9D2"/><path d="M256,256 L101,836 L-44,776 Z" fill="#F1E9D2"/><path d="M256,256 L-168,680 L-264,556 Z" fill="#F1E9D2"/><path d="M256,256 L-324,411 L-344,256 Z" fill="#F1E9D2"/><path d="M256,256 L-324,101 L-264,-44 Z" fill="#F1E9D2"/><path d="M256,256 L-168,-168 L-44,-264 Z" fill="#F1E9D2"/><path d="M256,256 L101,-324 L256,-344 Z" fill="#F1E9D2"/><path d="M256,256 L411,-324 L556,-264 Z" fill="#F1E9D2"/><path d="M256,256 L680,-168 L776,-44 Z" fill="#F1E9D2"/><circle cx="256" cy="266" r="205" fill="#E4F3FA"/><rect x="45" y="-4" width="30" height="520" rx="15" fill="#17BFE0"/><rect x="45" y="-4" width="10" height="520" rx="5" fill="#8FE7F7"/><rect x="65" y="-4" width="10" height="520" rx="5" fill="#0F9DBB"/><rect x="437" y="-4" width="30" height="520" rx="15" fill="#17BFE0"/><rect x="437" y="-4" width="10" height="520" rx="5" fill="#8FE7F7"/><rect x="457" y="-4" width="10" height="520" rx="5" fill="#0F9DBB"/><g transform="rotate(-3 256 300)"><rect x="242" y="70" width="24" height="70" rx="12" fill="#17122A"/><circle cx="254" cy="60" r="40" fill="#FF5C6E" stroke="#17122A" stroke-width="10"/><path d="M254,20 A40,40 0 0 1 294,60" fill="none" stroke="#FFD1D7" stroke-width="12" stroke-linecap="round" opacity="0.85"/><rect x="92" y="130" width="328" height="308" rx="98" fill="#2B2352" stroke="#17122A" stroke-width="16"/><path d="M110,240 Q104,152 190,142 L300,138 Q200,150 168,190 Q136,230 134,300 Z" fill="#3A2F6C"/><path d="M404,260 Q412,380 320,424 L250,430 Q356,404 380,330 Q396,290 396,260 Z" fill="#1F1840"/><rect x="146" y="196" width="220" height="152" rx="52" fill="#1A1433"/><rect x="156" y="206" width="200" height="132" rx="44" fill="#071D2B"/><path d="M170,212 Q250,204 342,216 L342,232 Q250,220 170,228 Z" fill="#1A3446"/><rect x="196" y="236" width="38" height="72" rx="19" fill="#4FE0FF"/><rect x="278" y="236" width="38" height="72" rx="19" fill="#4FE0FF"/><rect x="202" y="242" width="16" height="26" rx="8" fill="#D6F8FF"/><rect x="284" y="242" width="16" height="26" rx="8" fill="#D6F8FF"/><path d="M226,318 q30,20 60,0" fill="none" stroke="#4FE0FF" stroke-width="13" stroke-linecap="round"/><circle cx="176" cy="330" r="13" fill="#217199"/><circle cx="336" cy="330" r="13" fill="#217199"/><rect x="150" y="386" width="90" height="20" rx="10" fill="#3A2F6C"/><circle cx="352" cy="396" r="12" fill="#FFB020"/></g><rect x="151" y="-4" width="30" height="520" rx="15" fill="#17BFE0"/><rect x="151" y="-4" width="10" height="520" rx="5" fill="#8FE7F7"/><rect x="171" y="-4" width="10" height="520" rx="5" fill="#0F9DBB"/><rect x="331" y="-4" width="30" height="520" rx="15" fill="#17BFE0"/><rect x="331" y="-4" width="10" height="520" rx="5" fill="#8FE7F7"/><rect x="351" y="-4" width="10" height="520" rx="5" fill="#0F9DBB"/><circle cx="166" cy="368" r="34" fill="#2B2352" stroke="#17122A" stroke-width="12"/><rect x="140" y="342" width="52" height="15" rx="7.5" fill="#3A2F6C" stroke="#17122A" stroke-width="7"/><rect x="140" y="362" width="52" height="15" rx="7.5" fill="#3A2F6C" stroke="#17122A" stroke-width="7"/><rect x="140" y="382" width="52" height="15" rx="7.5" fill="#3A2F6C" stroke="#17122A" stroke-width="7"/><circle cx="346" cy="368" r="34" fill="#2B2352" stroke="#17122A" stroke-width="12"/><rect x="320" y="342" width="52" height="15" rx="7.5" fill="#3A2F6C" stroke="#17122A" stroke-width="7"/><rect x="320" y="362" width="52" height="15" rx="7.5" fill="#3A2F6C" stroke="#17122A" stroke-width="7"/><rect x="320" y="382" width="52" height="15" rx="7.5" fill="#3A2F6C" stroke="#17122A" stroke-width="7"/><rect x="-8" y="30" width="528" height="30" rx="15" fill="#0F9DBB"/><rect x="-8" y="452" width="528" height="30" rx="15" fill="#0F9DBB"/><rect x="-8" y="30" width="528" height="10" rx="5" fill="#17BFE0"/><circle cx="60" cy="45" r="7" fill="#8FE7F7"/><circle cx="166" cy="45" r="7" fill="#8FE7F7"/><circle cx="346" cy="45" r="7" fill="#8FE7F7"/><circle cx="452" cy="45" r="7" fill="#8FE7F7"/><path d="M70,104 l6,12 12,6 -12,6 -6,12 -6,-12 -12,-6 12,-6 Z" fill="#D9CBA6"/></svg>
